<svg xmlns="http://www.w3.org/2000/svg" viewBox="0 0 64 64" role="img" aria-label="Ice Retro">
  <rect width="64" height="64" rx="16" fill="#fbf3df" />
  <path d="M18 23c0-8 6.5-14 14-14s14 6 14 14c0 4-1.8 7.4-4.5 10L37 56H27l-4.5-23C19.8 30.4 18 27 18 23Z" fill="#ff6f61" />
  <path d="M22 23c0-5.8 4.6-10 10-10s10 4.2 10 10c0 2.6-1 4.8-2.8 6.8L35 50h-6l-4.2-20.2C23 27.8 22 25.6 22 23Z" fill="#5fd3bc" />
  <circle cx="27" cy="22" r="4" fill="#f8c85b" />
  <circle cx="36" cy="19" r="4" fill="#ffffff" />
  <path d="M25 56h14" stroke="#7c4025" stroke-width="3.5" stroke-linecap="round" />
</svg>
